<svg id="SvgjsSvg1001" width="100%" height="100%" xmlns="http://www.w3.org/2000/svg" version="1.1"
     xlink="http://www.w3.org/1999/xlink" xmlns:svgjs="http://svgjs.com/svgjs" preserveAspectRatio="xMidYMid meet"
     viewBox="0.507680646391628e-15 0.507680646391628e-15 70 70" overflow="visible">
    <defs id="SvgjsDefs1002"></defs>
    <g id="SvgjsG1008" transform="scale(0.6343996887212194)" opacity="1">
        <g id="SvgjsG1009" class="sqVB8lZZw"
           transform="translate(-7.105427357601002e-15, -7.105427357601002e-15) scale(1.09728)" light-content="false"
           non-strokable="false" fill="#f50">
            <path d="M24 0h76v76c0 13.255-10.745 24-24 24H0V24C0 10.745 10.745 0 24 0z"></path>
        </g>
        <g id="SvgjsG1010" class="cr0JisA0SK"
           transform="translate(13.85187850929442, 13.851833140157217) scale(0.8202239379795723)" light-content="true"
           non-strokable="false" fill="#ffffff">
            <path d="M19.789 89.453c-8.656 0-12.141-2.766-12.18-8.04-.79-11.718-.21-20.972-.234-32.702C9.254 15.109 3.113 9.91 42.203 10.606c11.914.156 23.793-.008 35.695.781 4.89.313 10.445 1.508 11.605 7.098 3.914 18.859 3.718 35.914 2.625 54.074-.364 6.004-.828 16.89-8.922 16.89-12.551.005-50.746.005-63.418.005zm-4.602-50.215c-.414 13.863-.156 27.777-.78 41.648-.024.629.077.969.788.988 22.59.008 45.25-1.398 67.848-.32 1.719.023 1.938-.23 2.09-1.95.727-12.964.145-26.022.133-39.003-23.453.71-46.723-.82-70.078-1.364zM41.46 17.176c-7.82 0-13.289-.64-21.68.508-2.87.39-4.28 2.02-4.418 4.937-.082 3.594-.375 7.235-.175 10.816 5.047.047 9.359-.273 14.418-.402.382-.016.875-.348 1.109-.68 3.629-5.066 7.102-10.109 10.746-15.18zm25.617.629c-6.058-.758-11.883-.488-17.988-.164-4.773 4.308-8.297 10.367-12.633 15.266 6.38.531 12.57.305 19.02.539 4.391-4.156 7.684-10.75 11.602-15.641zm18.145 16.148c-.23-4.395-.629-8.969-1.789-13.273-.843-3.023-4.719-2.77-7.386-2.77-1.407 0-10.164 11.312-13.773 15.672 7.71.122 15.223.247 22.949.372z"></path>
            <path d="M42.652 70.641c-4.14-.047-5.32-2.852-6.258-7.328-.972-4.625-.984-9.328.653-14.293 1.964-5.961 7.875-3.055 12.887-1.316 5.062 1.753 10.137 4.019 15.062 6.226 4.32 1.938 1.316 7.563-3.602 9.883-6.012 2.844-13.91 6.828-18.742 6.828zm.176-6.07c6.133-2.102 13.023-3.953 18.53-7.399-.007-.156-12.714-4.25-19.116-6.144-.664 4.582.023 8.933.586 13.543z"></path>
        </g>
    </g>
</svg>
