<svg id="SvgjsSvg1001" width="100%" height="100%" xmlns="http://www.w3.org/2000/svg" version="1.1"
     xlink="http://www.w3.org/1999/xlink" xmlns:svgjs="http://svgjs.com/svgjs" preserveAspectRatio="xMidYMid meet"
     viewBox="-4.507680646391628e-15 -4.507680646391628e-15 299.9999694824219 69.61140441894531" overflow="visible">
    <defs id="SvgjsDefs1002"></defs>
    <g id="SvgjsG1008" transform="scale(0.6343996887212194)" opacity="1">
        <g id="SvgjsG1009" class="sqVB8lZZw"
           transform="translate(-7.105427357601002e-15, -7.105427357601002e-15) scale(1.09728)" light-content="false"
           non-strokable="false" fill="#f50">
            <path d="M24 0h76v76c0 13.255-10.745 24-24 24H0V24C0 10.745 10.745 0 24 0z"></path>
        </g>
        <g id="SvgjsG1010" class="cr0JisA0SK"
           transform="translate(13.85187850929442, 13.851833140157217) scale(0.8202239379795723)" light-content="true"
           non-strokable="false" fill="#ffffff">
            <path d="M19.789 89.453c-8.656 0-12.141-2.766-12.18-8.04-.79-11.718-.21-20.972-.234-32.702C9.254 15.109 3.113 9.91 42.203 10.606c11.914.156 23.793-.008 35.695.781 4.89.313 10.445 1.508 11.605 7.098 3.914 18.859 3.718 35.914 2.625 54.074-.364 6.004-.828 16.89-8.922 16.89-12.551.005-50.746.005-63.418.005zm-4.602-50.215c-.414 13.863-.156 27.777-.78 41.648-.024.629.077.969.788.988 22.59.008 45.25-1.398 67.848-.32 1.719.023 1.938-.23 2.09-1.95.727-12.964.145-26.022.133-39.003-23.453.71-46.723-.82-70.078-1.364zM41.46 17.176c-7.82 0-13.289-.64-21.68.508-2.87.39-4.28 2.02-4.418 4.937-.082 3.594-.375 7.235-.175 10.816 5.047.047 9.359-.273 14.418-.402.382-.016.875-.348 1.109-.68 3.629-5.066 7.102-10.109 10.746-15.18zm25.617.629c-6.058-.758-11.883-.488-17.988-.164-4.773 4.308-8.297 10.367-12.633 15.266 6.38.531 12.57.305 19.02.539 4.391-4.156 7.684-10.75 11.602-15.641zm18.145 16.148c-.23-4.395-.629-8.969-1.789-13.273-.843-3.023-4.719-2.77-7.386-2.77-1.407 0-10.164 11.312-13.773 15.672 7.71.122 15.223.247 22.949.372z"></path>
            <path d="M42.652 70.641c-4.14-.047-5.32-2.852-6.258-7.328-.972-4.625-.984-9.328.653-14.293 1.964-5.961 7.875-3.055 12.887-1.316 5.062 1.753 10.137 4.019 15.062 6.226 4.32 1.938 1.316 7.563-3.602 9.883-6.012 2.844-13.91 6.828-18.742 6.828zm.176-6.07c6.133-2.102 13.023-3.953 18.53-7.399-.007-.156-12.714-4.25-19.116-6.144-.664 4.582.023 8.933.586 13.543z"></path>
        </g>
        <g id="SvgjsG1067" class="text" transform="translate(290, 77) scale(1)"
           light-content="false" fill="#fff">
            <path d="M-106.95 0L-98.37 0L-103.59 -44.4L-112.05 -44.4L-122.19 -10.38L-132.39 -44.4L-140.91 -44.4L-146.07 0L-137.49 0L-134.19 -28.68L-126.45 0L-118.11 0L-110.37 -29.04Z M-80.37 -1.38C-77.77 -0.22 -74.29 0.36 -69.93 0.36C-65.57 0.36 -62.1 -0.22 -59.52 -1.38C-56.94 -2.54 -54.99 -4.74 -53.67 -7.98C-52.35 -11.22 -51.69 -15.94 -51.69 -22.14C-51.69 -28.34 -52.35 -33.07 -53.67 -36.33C-54.99 -39.59 -56.94 -41.82 -59.52 -43.02C-62.1 -44.22 -65.57 -44.82 -69.93 -44.82C-74.25 -44.82 -77.71 -44.22 -80.31 -43.02C-82.91 -41.82 -84.88 -39.59 -86.22 -36.33C-87.56 -33.07 -88.23 -28.34 -88.23 -22.14C-88.23 -15.94 -87.57 -11.22 -86.25 -7.98C-84.93 -4.74 -82.97 -2.54 -80.37 -1.38ZM-64.2 -8.73C-65.5 -7.99 -67.41 -7.62 -69.93 -7.62C-72.49 -7.62 -74.42 -7.99 -75.72 -8.73C-77.02 -9.47 -77.95 -10.86 -78.51 -12.9C-79.07 -14.94 -79.35 -18.02 -79.35 -22.14C-79.35 -26.34 -79.05 -29.48 -78.45 -31.56C-77.85 -33.64 -76.9 -35.04 -75.6 -35.76C-74.3 -36.48 -72.41 -36.84 -69.93 -36.84C-67.41 -36.84 -65.5 -36.48 -64.2 -35.76C-62.9 -35.04 -61.97 -33.65 -61.41 -31.59C-60.85 -29.53 -60.57 -26.38 -60.57 -22.14C-60.57 -18.06 -60.85 -14.99 -61.41 -12.93C-61.97 -10.87 -62.9 -9.47 -64.2 -8.73Z M-42.87 -44.4L-28.95 0L-17.73 0L-3.81 -44.4L-12.93 -44.4L-23.31 -9.6L-33.69 -44.4Z M7.05 -44.4L7.05 0L15.93 0L15.93 -44.4Z M32.85 -1.62C35.01 -0.34 37.53 0.3 40.41 0.3C47.45 0.3 53.63 0 58.95 -0.6L58.95 -8.04L42.21 -8.04C39.73 -8.04 38.49 -9.36 38.49 -12L38.49 -18.12L56.07 -18.6L56.07 -25.62L38.49 -26.1L38.49 -32.52C38.49 -34.96 39.79 -36.18 42.39 -36.18L58.95 -36.18L58.95 -43.62C52.27 -44.14 45.87 -44.4 39.75 -44.4C36.95 -44.4 34.56 -43.61 32.58 -42.03C30.6 -40.45 29.61 -37.86 29.61 -34.26L29.61 -9.48C29.61 -5.52 30.69 -2.9 32.85 -1.62Z M77.49 -0.06C80.09 0.22 82.53 0.36 84.81 0.36C88.13 0.36 90.91 0.01 93.15 -0.69C95.39 -1.39 97.13 -2.67 98.37 -4.53C99.61 -6.39 100.23 -9 100.23 -12.36L100.23 -14.88C100.23 -18.28 99.22 -21.03 97.2 -23.13C95.18 -25.23 92.25 -26.28 88.41 -26.28L84.03 -26.28C82.27 -26.28 80.96 -26.63 80.1 -27.33C79.24 -28.03 78.81 -29.14 78.81 -30.66L78.81 -31.86C78.81 -33.74 79.39 -35.03 80.55 -35.73C81.71 -36.43 83.43 -36.78 85.71 -36.78C88.51 -36.78 92.65 -36.6 98.13 -36.24L98.13 -43.26C96.21 -43.66 94.05 -44.01 91.65 -44.31C89.25 -44.61 86.93 -44.76 84.69 -44.76C75.13 -44.76 70.35 -40.6 70.35 -32.28L70.35 -30.12C70.35 -25.76 71.44 -22.62 73.62 -20.7C75.8 -18.78 79.09 -17.82 83.49 -17.82L87.27 -17.82C88.71 -17.82 89.82 -17.47 90.6 -16.77C91.38 -16.07 91.77 -15.06 91.77 -13.74L91.77 -12.12C91.77 -10.44 91.15 -9.27 89.91 -8.61C88.67 -7.95 86.83 -7.62 84.39 -7.62C78.95 -7.62 74.45 -7.8 70.89 -8.16L70.89 -1.14C72.69 -0.7 74.89 -0.34 77.49 -0.06Z M133.89 -21.78L147.69 -44.4L137.91 -44.4L129.27 -29.22L119.79 -44.4L109.95 -44.4L123.81 -22.26L110.13 0L119.97 0L128.43 -14.76L137.67 0L147.51 0Z"></path>
        </g>
    </g>
</svg>
